<svg width="24" height="24" viewBox="0 0 24 24" fill="none" xmlns="http://www.w3.org/2000/svg">
<g id="block-icon">
<path id="Union" fill-rule="evenodd" clip-rule="evenodd" d="M19.3307 12.0001C19.3307 16.0502 16.0475 19.3334 11.9974 19.3334C10.4553 19.3334 9.02437 18.8574 7.84353 18.0444L18.0417 7.84621C18.8547 9.02706 19.3307 10.458 19.3307 12.0001ZM6.36406 16.6954L16.6927 6.36674C15.4207 5.30537 13.7836 4.66675 11.9974 4.66675C7.94731 4.66675 4.66406 7.94999 4.66406 12.0001C4.66406 13.7863 5.30268 15.4234 6.36406 16.6954ZM21.3307 12.0001C21.3307 17.1547 17.1521 21.3334 11.9974 21.3334C6.84274 21.3334 2.66406 17.1547 2.66406 12.0001C2.66406 6.84542 6.84274 2.66675 11.9974 2.66675C17.1521 2.66675 21.3307 6.84542 21.3307 12.0001Z" fill="white"/>
</g>
</svg>
