<svg width="24" height="24" viewBox="0 0 24 24" fill="none" xmlns="http://www.w3.org/2000/svg">
<path fill-rule="evenodd" clip-rule="evenodd" d="M8.77916 8.73407C8.77916 7.50023 9.77939 6.5 11.0132 6.5C12.2471 6.5 13.2473 7.50023 13.2473 8.73407C13.2473 9.96791 12.2471 10.9681 11.0132 10.9681C9.77939 10.9681 8.77916 9.96791 8.77916 8.73407ZM11.0132 5C8.95096 5 7.27916 6.6718 7.27916 8.73407C7.27916 10.7963 8.95096 12.4681 11.0132 12.4681C13.0755 12.4681 14.7473 10.7963 14.7473 8.73407C14.7473 6.6718 13.0755 5 11.0132 5ZM11.0132 14.3469C7.10919 14.3469 4.39161 15.655 3.10686 17.798C2.89387 18.1532 3.00921 18.6139 3.36446 18.8269C3.71972 19.0399 4.18038 18.9245 4.39337 18.5693C5.3059 17.0472 7.40406 15.8469 11.0132 15.8469C11.8239 15.8469 12.5612 15.908 13.2268 16.0204C13.6352 16.0894 14.0222 15.8142 14.0912 15.4058C14.1602 14.9973 13.885 14.6103 13.4765 14.5414C12.7201 14.4136 11.8987 14.3469 11.0132 14.3469ZM20.7005 14.9971C20.9934 14.7042 20.9934 14.2294 20.7005 13.9365C20.4076 13.6436 19.9327 13.6436 19.6398 13.9365L18.2609 15.3154L16.882 13.9366C16.5891 13.6437 16.1142 13.6437 15.8213 13.9366C15.5285 14.2295 15.5285 14.7043 15.8213 14.9972L17.2002 16.3761L15.8214 17.7548C15.5286 18.0477 15.5286 18.5226 15.8214 18.8155C16.1143 19.1084 16.5892 19.1084 16.8821 18.8155L18.2609 17.4367L19.6397 18.8156C19.9326 19.1085 20.4075 19.1085 20.7004 18.8156C20.9933 18.5227 20.9933 18.0478 20.7004 17.7549L19.3215 16.3761L20.7005 14.9971Z" fill="white"/>
</svg>
