<svg width="24" height="24" viewBox="0 0 24 24" fill="none" xmlns="http://www.w3.org/2000/svg">
<g id="file-05">
<path id="Icon" d="M14.9996 2.40002V6.00002C14.9996 6.66277 15.5369 7.20002 16.1996 7.20002H19.7996M8.39959 7.20002H10.7996M8.39959 10.8H15.5996M8.39959 14.4H15.5996M17.9996 4.20002C17.4655 3.72217 16.9113 3.1554 16.5614 2.7873C16.3286 2.54236 16.007 2.40002 15.669 2.40002H6.59931C5.27383 2.40002 4.19932 3.47453 4.19931 4.80001L4.19922 19.2C4.19921 20.5254 5.27372 21.6 6.59921 21.6L17.3993 21.6C18.7247 21.6 19.7992 20.5255 19.7993 19.2001L19.7996 6.47786C19.7996 6.17102 19.6825 5.87606 19.4696 5.65516C19.0758 5.24667 18.4182 4.57454 17.9996 4.20002Z" stroke="#FAFAFA" stroke-width="1.5" stroke-linecap="round" stroke-linejoin="round"/>
</g>
</svg>
